<svg width="38" height="38" viewBox="0 0 38 38" fill="none" xmlns="http://www.w3.org/2000/svg">
<path d="M19.0001 0.182617C15.2784 0.182617 11.6402 1.28624 8.54568 3.35394C5.45116 5.42163 3.03927 8.36052 1.61502 11.799C0.19077 15.2374 -0.181879 19.021 0.544199 22.6712C1.27028 26.3215 3.06247 29.6744 5.69414 32.3061C8.32582 34.9378 11.6788 36.73 15.329 37.456C18.9792 38.1821 22.7628 37.8095 26.2013 36.3852C29.6397 34.961 32.5786 32.5491 34.6463 29.4546C36.714 26.36 37.8176 22.7219 37.8176 19.0001C37.8109 14.0115 35.8262 9.22909 32.2986 5.70159C28.7711 2.17408 23.9888 0.189364 19.0001 0.182617ZM20.3051 27.1901H20.1251V29.2976C20.1251 29.596 20.0066 29.8821 19.7956 30.0931C19.5846 30.3041 19.2985 30.4226 19.0001 30.4226C18.7018 30.4226 18.4156 30.3041 18.2046 30.0931C17.9937 29.8821 17.8751 29.596 17.8751 29.2976V27.1901H15.4151C15.1168 27.1901 14.8306 27.0716 14.6196 26.8606C14.4087 26.6496 14.2901 26.3635 14.2901 26.0651C14.2901 25.7667 14.4087 25.4806 14.6196 25.2696C14.8306 25.0586 15.1168 24.9401 15.4151 24.9401H20.3051C20.9436 24.9401 21.556 24.6865 22.0075 24.235C22.459 23.7835 22.7126 23.1711 22.7126 22.5326C22.7126 21.8941 22.459 21.2817 22.0075 20.8303C21.556 20.3788 20.9436 20.1251 20.3051 20.1251H17.6951C16.4599 20.1251 15.2752 19.6344 14.4018 18.761C13.5283 17.8875 13.0376 16.7029 13.0376 15.4676C13.0376 14.2324 13.5283 13.0477 14.4018 12.1743C15.2752 11.3008 16.4599 10.8101 17.6951 10.8101H17.8751V8.70262C17.8751 8.40425 17.9937 8.1181 18.2046 7.90712C18.4156 7.69614 18.7018 7.57762 19.0001 7.57762C19.2985 7.57762 19.5846 7.69614 19.7956 7.90712C20.0066 8.1181 20.1251 8.40425 20.1251 8.70262V10.8101H22.5851C22.8835 10.8101 23.1696 10.9286 23.3806 11.1396C23.5916 11.3506 23.7101 11.6367 23.7101 11.9351C23.7101 12.2335 23.5916 12.5196 23.3806 12.7306C23.1696 12.9416 22.8835 13.0601 22.5851 13.0601H17.6951C17.0566 13.0601 16.4443 13.3138 15.9928 13.7653C15.5413 14.2167 15.2876 14.8291 15.2876 15.4676C15.2876 16.1061 15.5413 16.7185 15.9928 17.17C16.4443 17.6215 17.0566 17.8751 17.6951 17.8751H20.3051C21.5404 17.8751 22.725 18.3658 23.5985 19.2393C24.4719 20.1127 24.9626 21.2974 24.9626 22.5326C24.9626 23.7679 24.4719 24.9525 23.5985 25.826C22.725 26.6994 21.5404 27.1901 20.3051 27.1901Z" fill="#222222"/>
</svg>
