<svg width="48" height="48" viewBox="0 0 48 48" fill="none" xmlns="http://www.w3.org/2000/svg">
<path d="M16.5274 43.5C15.7504 43.5 14.9824 43.2015 14.4004 42.6195L5.38087 33.6C4.20638 32.427 4.20638 30.522 5.38087 29.349C6.55537 28.1745 8.45737 28.1745 9.63187 29.349L16.8844 36.6015L38.7919 21.564C40.1599 20.625 42.0319 20.973 42.9709 22.341C43.9114 23.7105 43.5634 25.581 42.1939 26.5215L18.2284 42.972C17.7109 43.326 17.1184 43.5 16.5274 43.5Z" fill="#222222"/>
<path d="M16.5274 26.9641C15.7504 26.9641 14.9824 26.6656 14.4004 26.0836L5.38087 17.0641C4.20638 15.8896 4.20638 13.9861 5.38087 12.8131C6.55537 11.6386 8.45737 11.6386 9.63187 12.8131L16.8844 20.0656L38.7919 5.02807C40.1599 4.08907 42.0319 4.43707 42.9709 5.80507C43.9114 7.17457 43.5634 9.04507 42.1939 9.98557L18.2284 26.4376C17.7109 26.7916 17.1184 26.9641 16.5274 26.9641Z" fill="#222222"/>
</svg>
