<svg width="48" height="48" viewBox="0 0 48 48" fill="none" xmlns="http://www.w3.org/2000/svg">
<path d="M41.121 36.879L33.5055 29.2635C35.079 26.892 36 24.0525 36 21C36 12.729 29.271 6 21 6C12.729 6 6 12.729 6 21C6 29.271 12.729 36 21 36C24.0525 36 26.892 35.079 29.2635 33.5055L36.879 41.121C38.049 42.2925 39.951 42.2925 41.121 41.121C42.2925 39.9495 42.2925 38.0505 41.121 36.879ZM10.5 21C10.5 15.21 15.21 10.5 21 10.5C26.79 10.5 31.5 15.21 31.5 21C31.5 26.79 26.79 31.5 21 31.5C15.21 31.5 10.5 26.79 10.5 21Z" fill="#222222"/>
</svg>
